<svg width="492" height="439" viewBox="0 0 492 439" fill="none" xmlns="http://www.w3.org/2000/svg">
<g clip-path="url(#clip0)">
<path d="M491.3 219.5C491.3 187 450.6 156.2 388.2 137.1C402.6 73.5 396.2 22.9 368 6.7C361.5 2.9 353.9 1.1 345.6 1.1V23.4C350.2 23.4 353.9 24.3 357 26C370.6 33.8 376.5 63.5 371.9 101.7C370.8 111.1 369 121 366.8 131.1C347.2 126.3 325.8 122.6 303.3 120.2C289.8 101.7 275.8 84.9 261.7 70.2C294.3 39.9 324.9 23.3 345.7 23.3V1C318.2 1 282.2 20.6 245.8 54.6C209.4 20.8 173.4 1.4 145.9 1.4V23.7C166.6 23.7 197.3 40.2 229.9 70.3C215.9 85 201.9 101.7 188.6 120.2C166 122.6 144.6 126.3 125 131.2C122.7 121.2 121 111.5 119.8 102.2C115.1 64 120.9 34.3 134.4 26.4C137.4 24.6 141.3 23.8 145.9 23.8V1.5C137.5 1.5 129.9 3.3 123.3 7.1C95.2 23.3 88.9 73.8 103.4 137.2C41.2 156.4 0.700012 187.1 0.700012 219.5C0.700012 252 41.4 282.8 103.8 301.9C89.4 365.5 95.8 416.1 124 432.3C130.5 436.1 138.1 437.9 146.5 437.9C174 437.9 210 418.3 246.4 384.3C282.8 418.1 318.8 437.5 346.3 437.5C354.7 437.5 362.3 435.7 368.9 431.9C397 415.7 403.3 365.2 388.8 301.8C450.8 282.7 491.3 251.9 491.3 219.5ZM361.1 152.8C357.4 165.7 352.8 179 347.6 192.3C343.5 184.3 339.2 176.3 334.5 168.3C329.9 160.3 325 152.5 320.1 144.9C334.3 147 348 149.6 361.1 152.8ZM315.3 259.3C307.5 272.8 299.5 285.6 291.2 297.5C276.3 298.8 261.2 299.5 246 299.5C230.9 299.5 215.8 298.8 201 297.6C192.7 285.7 184.6 273 176.8 259.6C169.2 246.5 162.3 233.2 156 219.8C162.2 206.4 169.2 193 176.7 179.9C184.5 166.4 192.5 153.6 200.8 141.7C215.7 140.4 230.8 139.7 246 139.7C261.1 139.7 276.2 140.4 291 141.6C299.3 153.5 307.4 166.2 315.2 179.6C322.8 192.7 329.7 206 336 219.4C329.7 232.8 322.8 246.2 315.3 259.3ZM347.6 246.3C353 259.7 357.6 273.1 361.4 286.1C348.3 289.3 334.5 292 320.2 294.1C325.1 286.4 330 278.5 334.6 270.4C339.2 262.4 343.5 254.3 347.6 246.3ZM246.2 353C236.9 343.4 227.6 332.7 218.4 321C227.4 321.4 236.6 321.7 245.9 321.7C255.3 321.7 264.6 321.5 273.7 321C264.7 332.7 255.4 343.4 246.2 353ZM171.8 294.1C157.6 292 143.9 289.4 130.8 286.2C134.5 273.3 139.1 260 144.3 246.7C148.4 254.7 152.7 262.7 157.4 270.7C162.1 278.7 166.9 286.5 171.8 294.1ZM245.7 86C255 95.6 264.3 106.3 273.5 118C264.5 117.6 255.3 117.3 246 117.3C236.6 117.3 227.3 117.5 218.2 118C227.2 106.3 236.5 95.6 245.7 86ZM171.7 144.9C166.8 152.6 161.9 160.5 157.3 168.6C152.7 176.6 148.4 184.6 144.3 192.6C138.9 179.2 134.3 165.8 130.5 152.8C143.6 149.7 157.4 147 171.7 144.9ZM81.2 270.1C45.8 255 22.9 235.2 22.9 219.5C22.9 203.8 45.8 183.9 81.2 168.9C89.8 165.2 99.2 161.9 108.9 158.8C114.6 178.4 122.1 198.8 131.4 219.7C122.2 240.5 114.8 260.8 109.2 280.3C99.3 277.2 89.9 273.8 81.2 270.1ZM135 413C121.4 405.2 115.5 375.5 120.1 337.3C121.2 327.9 123 318 125.2 307.9C144.8 312.7 166.2 316.4 188.7 318.8C202.2 337.3 216.2 354.1 230.3 368.8C197.7 399.1 167.1 415.7 146.3 415.7C141.8 415.6 138 414.7 135 413ZM372.2 336.8C376.9 375 371.1 404.7 357.6 412.6C354.6 414.4 350.7 415.2 346.1 415.2C325.4 415.2 294.7 398.7 262.1 368.6C276.1 353.9 290.1 337.2 303.4 318.7C326 316.3 347.4 312.6 367 307.7C369.3 317.8 371.1 327.5 372.2 336.8ZM410.7 270.1C402.1 273.8 392.7 277.1 383 280.2C377.3 260.6 369.8 240.2 360.5 219.3C369.7 198.5 377.1 178.2 382.7 158.7C392.6 161.8 402 165.2 410.8 168.9C446.2 184 469.1 203.8 469.1 219.5C469 235.2 446.1 255.1 410.7 270.1Z" fill="#61DAFB"/>
<path d="M245.9 265.2C271.139 265.2 291.6 244.739 291.6 219.5C291.6 194.261 271.139 173.8 245.9 173.8C220.661 173.8 200.2 194.261 200.2 219.5C200.2 244.739 220.661 265.2 245.9 265.2Z" fill="#61DAFB"/>
</g>
<defs>
<clipPath id="clip0">
<rect width="492" height="439" fill="white"/>
</clipPath>
</defs>
</svg>
